<?xml version="1.0" encoding="utf-8"?>
<!DOCTYPE svg PUBLIC "-//W3C//DTD SVG 20010904//EN" "http://www.w3.org/TR/2001/REC-SVG-20010904/DTD/svg10.dtd">
<svg version="1.0" xmlns="http://www.w3.org/2000/svg" width="757pt" height="332pt" viewBox="0 0 757 332" preserveAspectRatio="xMidYMid meet">
<g fill="#A0375FFD">
<path d="M 452.52 165.75 C 452.19 163.41 452.05 139.90 452.21 113.50 L 452.50 65.50 L 491.45 65.24 L 530.41 64.98 L 535.20 69.70 L 540.00 74.42 L 540.00 90.50 L 540.00 106.58 L 535.50 111.00 C 533.02 113.43 531.00 116.13 531.00 117.00 C 531.00 117.87 533.02 120.57 535.50 123.00 L 540.00 127.42 L 540.00 144.00 L 540.00 160.58 L 535.22 165.29 L 530.43 170.00 L 491.78 170.00 L 453.12 170.00 L 452.52 165.75ZM 521.78 138.25 L 522.06 126.00 L 496.53 126.00 C 482.49 126.00 470.97 126.11 470.92 126.25 C 470.44 127.84 469.96 148.46 470.38 149.56 C 470.87 150.82 474.67 151.00 496.23 150.77 L 521.50 150.50 L 521.78 138.25ZM 521.50 95.90 L 521.50 84.50 L 496.00 84.50 L 470.50 84.50 L 470.21 94.85 C 470.06 100.55 470.36 105.72 470.88 106.36 C 471.55 107.17 479.09 107.47 496.67 107.40 L 521.50 107.30 L 521.50 95.90Z"/></g>
<g fill="#5F4C65FE">
<path d="M 478.75 299.23 L 460.00 298.96 L 460.00 247.03 L 460.00 195.10 L 498.71 195.04 L 537.41 194.98 L 542.71 200.20 L 548.00 205.43 L 548.00 220.50 L 548.00 235.58 L 543.00 240.50 C 540.25 243.21 538.00 245.91 538.00 246.50 C 538.00 247.09 540.25 249.79 543.00 252.50 L 548.00 257.42 L 548.00 273.63 L 548.00 289.84 L 543.42 294.42 L 538.84 299.00 L 529.67 299.05 C 524.63 299.07 515.33 299.18 509.00 299.30 C 502.68 299.41 489.06 299.38 478.75 299.23ZM 529.50 268.50 L 529.50 255.50 L 504.00 255.50 L 478.50 255.50 L 478.22 267.44 C 478.06 274.01 478.16 279.98 478.44 280.71 C 478.85 281.77 483.97 281.98 504.23 281.77 L 529.50 281.50 L 529.50 268.50ZM 529.78 225.28 C 530.06 214.31 530.01 214.04 527.78 213.50 C 526.53 213.19 514.92 213.06 502.00 213.22 L 478.50 213.50 L 478.22 225.27 L 477.94 237.03 L 503.72 236.77 L 529.50 236.50 L 529.78 225.28Z"/></g>
<g fill="#5F4C65FE">
<path d="M 49.67 160.33 C 48.56 159.22 48.92 96.72 50.08 88.32 C 54.49 56.54 78.78 32.20 111.30 26.97 C 126.15 24.57 140.42 27.03 155.94 34.65 C 163.77 38.48 166.87 40.76 174.02 47.89 C 187.44 61.29 193.76 75.03 194.73 93.00 C 195.35 104.31 194.07 108.32 188.49 112.58 C 183.18 116.62 173.95 117.22 168.03 113.90 C 162.38 110.72 160.30 106.89 159.11 97.48 C 157.02 80.92 151.09 71.66 138.47 65.25 C 120.30 56.02 97.59 63.87 88.42 82.55 L 85.50 88.50 L 85.20 123.97 C 84.98 150.21 84.59 159.64 83.70 160.21 C 82.23 161.14 50.60 161.26 49.67 160.33Z"/></g>
<g fill="#A0375FFD">
<path d="M 658.70 169.25 C 658.47 168.84 658.33 145.32 658.39 117.00 L 658.50 65.50 L 696.45 65.24 L 734.41 64.98 L 739.20 69.70 L 744.00 74.42 L 744.00 101.08 L 744.00 127.73 L 739.00 132.40 C 736.25 134.98 734.00 137.64 734.00 138.33 C 734.00 139.01 736.25 141.79 739.00 144.50 L 744.00 149.42 L 744.00 159.10 L 744.00 168.78 L 740.75 169.15 C 738.96 169.35 734.91 169.35 731.75 169.16 L 726.00 168.81 L 726.00 163.17 L 726.00 157.53 L 715.77 147.27 L 705.54 137.00 L 691.37 137.00 C 679.38 137.00 677.12 137.24 676.61 138.58 C 676.27 139.45 676.00 146.88 676.00 155.08 L 676.00 170.00 L 667.56 170.00 C 662.92 170.00 658.93 169.66 658.70 169.25ZM 726.00 101.48 L 726.00 83.97 L 701.25 84.23 L 676.50 84.50 L 676.23 101.75 L 675.95 119.00 L 700.98 119.00 L 726.00 119.00 L 726.00 101.48Z"/></g>
<g fill="#5F4C65FE">
<path d="M 351.00 262.74 L 351.00 226.48 L 366.75 210.80 L 382.50 195.13 L 411.50 195.31 L 440.50 195.50 L 440.76 247.25 L 441.02 299.00 L 431.41 299.00 L 421.81 299.00 L 422.14 283.75 L 422.47 268.50 L 396.73 268.00 C 382.57 267.73 370.53 267.65 369.99 267.83 C 369.39 268.03 369.00 274.30 369.00 283.58 L 369.00 299.00 L 360.00 299.00 L 351.00 299.00 L 351.00 262.74ZM 422.25 248.75 C 422.59 247.83 422.44 224.44 422.03 213.75 C 422.01 213.34 415.14 213.00 406.77 213.00 L 391.53 213.00 L 380.27 224.23 L 369.00 235.47 L 369.00 242.07 C 369.00 245.70 369.30 248.97 369.67 249.33 C 370.03 249.70 381.91 250.00 396.06 250.00 C 415.73 250.00 421.90 249.71 422.25 248.75Z"/></g>
<g fill="#5F4C65FE">
<path d="M 69.56 265.73 C 62.30 261.63 61.52 259.03 61.34 238.50 C 61.26 228.60 61.41 221.55 61.67 222.83 C 61.99 224.33 62.66 224.96 63.58 224.61 C 64.45 224.27 65.03 224.72 65.08 225.78 C 65.13 226.82 65.36 227.01 65.66 226.25 C 65.94 225.56 66.80 225.00 67.58 225.00 C 68.36 225.00 69.00 224.32 69.00 223.50 C 69.00 222.67 70.80 221.21 73.00 220.26 C 77.08 218.49 78.63 216.26 75.00 217.38 C 73.90 217.72 72.10 218.28 71.00 218.62 C 69.83 218.98 69.00 218.77 69.00 218.12 C 69.00 217.50 69.73 217.00 70.62 217.00 C 73.13 217.00 85.00 212.72 85.00 211.81 C 85.00 211.36 86.32 211.00 87.94 211.00 C 89.56 211.00 91.16 210.55 91.50 210.00 C 91.84 209.45 93.18 209.00 94.48 209.00 C 95.77 209.00 97.09 208.44 97.41 207.75 C 97.72 207.06 97.73 207.51 97.42 208.75 C 97.08 210.14 97.32 211.00 98.06 211.00 C 98.91 211.00 98.87 211.49 97.89 212.75 C 96.79 214.17 96.95 214.15 98.77 212.60 C 100.00 211.55 101.00 209.86 101.00 208.85 C 101.00 207.83 101.56 206.99 102.25 206.98 C 103.22 206.97 103.23 206.80 102.29 206.20 C 100.46 205.04 101.90 201.00 104.15 201.00 C 105.20 201.00 106.32 201.68 106.64 202.50 C 106.95 203.32 107.95 203.99 108.86 203.98 C 110.29 203.97 110.31 203.83 109.00 202.89 C 107.70 201.96 107.72 201.88 109.13 202.33 C 110.02 202.61 111.37 202.32 112.11 201.67 C 112.86 201.03 112.53 201.62 111.38 203.00 C 110.24 204.38 109.01 206.32 108.66 207.31 C 108.30 208.31 107.55 208.84 106.99 208.49 C 106.43 208.15 106.22 207.45 106.54 206.94 C 106.85 206.43 106.65 205.22 106.08 204.26 C 105.01 202.42 104.75 203.06 104.75 207.50 C 104.75 212.05 104.90 212.33 106.56 210.95 C 107.41 210.24 108.03 210.08 107.94 210.58 C 107.27 214.11 108.42 217.46 111.46 220.83 C 114.86 224.59 114.93 224.83 115.21 234.58 L 115.50 244.50 L 121.72 244.80 C 127.72 245.08 127.96 245.00 128.61 242.43 C 128.97 240.97 128.99 236.39 128.64 232.26 L 128.00 224.74 L 131.50 220.87 C 133.43 218.74 135.00 215.95 135.00 214.67 C 135.00 213.23 135.92 211.84 137.42 211.04 C 138.75 210.33 139.62 209.17 139.35 208.47 C 139.08 207.77 139.34 206.91 139.93 206.54 C 140.89 205.95 141.40 207.90 141.28 211.70 C 141.22 213.47 146.29 214.35 157.50 214.50 C 168.17 214.65 172.00 213.46 176.54 208.56 C 177.66 207.35 179.23 206.56 180.04 206.80 C 181.22 207.16 181.26 206.99 180.25 205.93 C 178.67 204.25 178.62 202.64 180.17 203.61 C 180.96 204.10 181.13 203.78 180.68 202.61 C 180.29 201.59 180.42 201.14 181.01 201.51 C 182.89 202.67 182.14 207.82 180.00 208.50 C 177.97 209.14 177.16 212.00 179.00 212.00 C 179.55 212.00 180.00 211.32 180.00 210.50 C 180.00 209.68 180.45 209.00 181.00 209.00 C 182.32 209.00 182.33 251.28 181.00 256.04 C 179.89 260.07 174.87 265.36 170.68 266.94 C 168.84 267.63 151.56 267.99 120.68 267.98 C 73.71 267.97 73.48 267.96 69.56 265.73Z"/></g>
<g fill="#5F4C65FE">
<path d="M 570.21 294.71 L 566.00 290.42 L 566.00 280.21 L 566.00 270.00 L 574.95 270.00 L 583.90 270.00 L 584.20 275.75 L 584.50 281.50 L 609.00 281.78 C 622.48 281.94 634.53 281.81 635.78 281.51 C 638.02 280.96 638.05 280.74 637.78 268.22 L 637.50 255.50 L 606.52 255.24 L 575.54 254.97 L 570.77 250.27 L 566.00 245.58 L 566.00 224.92 L 566.00 204.27 L 570.96 199.64 L 575.91 195.00 L 611.24 195.00 L 646.58 195.00 L 651.29 199.78 L 656.00 204.57 L 656.00 214.28 L 656.00 224.00 L 647.05 224.00 L 638.10 224.00 L 637.80 218.75 L 637.50 213.50 L 611.00 213.50 L 584.50 213.50 L 584.50 225.00 L 584.50 236.50 L 615.44 236.76 L 646.39 237.03 L 651.18 242.26 L 655.97 247.50 L 655.98 268.77 L 656.00 290.04 L 651.87 294.52 L 647.75 299.00 L 611.08 299.00 L 574.42 299.00 L 570.21 294.71Z"/></g>
<g fill="#A0375FFD">
<path d="M 558.63 166.26 C 558.32 164.19 558.16 140.56 558.26 113.75 L 558.45 65.00 L 601.76 65.00 L 645.08 65.00 L 644.79 74.25 L 644.50 83.50 L 611.50 83.51 C 593.35 83.52 577.94 83.89 577.25 84.32 C 576.37 84.88 576.00 88.40 576.00 96.06 C 576.00 104.13 576.33 107.01 577.25 107.03 C 577.94 107.04 591.66 107.03 607.75 107.00 L 637.00 106.95 L 637.00 116.46 L 637.00 125.97 L 606.75 126.24 L 576.50 126.50 L 576.50 138.50 L 576.50 150.50 L 610.50 151.00 L 644.50 151.50 L 644.50 160.50 L 644.50 169.50 L 601.84 169.76 L 559.18 170.02 L 558.63 166.26Z"/></g>
<g fill="#A0375FFD">
<path d="M 71.00 305.82 C 71.00 305.37 71.72 305.00 72.60 305.00 C 73.48 305.00 75.46 303.65 77.00 302.00 C 78.54 300.35 80.52 299.00 81.40 299.00 C 82.28 299.00 83.00 298.55 83.00 298.00 C 83.00 297.45 83.71 297.00 84.57 297.00 C 86.59 297.00 89.00 294.59 89.00 292.57 C 89.00 291.71 89.45 291.00 90.00 291.00 C 90.55 291.00 91.00 290.57 91.00 290.05 C 91.00 289.53 88.86 288.93 86.25 288.72 C 83.64 288.50 85.10 288.37 89.50 288.41 C 96.54 288.49 97.48 288.29 97.36 286.75 C 97.17 284.39 98.71 284.52 99.48 286.93 C 99.99 288.53 100.85 288.80 104.55 288.52 C 107.00 288.34 109.00 288.59 109.00 289.09 C 109.00 289.59 108.10 290.00 107.00 290.00 C 105.90 290.00 105.00 290.48 105.00 291.07 C 105.00 291.66 104.33 292.82 103.50 293.64 C 102.67 294.47 102.00 295.56 102.00 296.07 C 102.00 296.58 102.67 297.00 103.50 297.00 C 104.33 297.00 105.00 297.45 105.00 298.00 C 105.00 298.55 103.06 299.00 100.69 299.00 C 96.42 299.00 94.62 299.88 92.08 303.25 C 90.85 304.88 91.21 304.99 97.13 304.84 C 100.63 304.75 102.04 304.50 100.25 304.28 C 95.41 303.68 95.94 301.00 100.89 301.00 C 104.79 301.00 106.45 299.46 105.50 296.75 C 105.25 296.06 105.75 294.60 106.59 293.50 C 108.04 291.61 108.20 291.60 109.42 293.25 C 110.14 294.21 111.23 295.00 111.86 295.00 C 113.82 295.00 113.11 292.28 110.25 288.88 C 108.28 286.53 108.00 285.79 109.25 286.27 C 110.32 286.68 111.01 286.47 111.02 285.72 C 111.03 284.81 111.24 284.83 111.85 285.78 C 112.88 287.41 128.27 287.68 128.81 286.08 C 129.05 285.34 140.14 285.00 164.41 285.00 L 199.65 285.00 L 201.75 282.75 C 203.78 280.57 203.85 279.44 204.13 245.68 C 204.28 226.53 204.79 210.63 205.25 210.35 C 205.71 210.06 205.81 208.97 205.47 207.92 C 205.14 206.86 205.23 206.01 205.68 206.02 C 207.75 206.05 208.86 207.86 209.52 212.25 C 210.09 216.06 210.62 217.00 212.18 217.00 C 215.25 217.00 217.00 214.50 217.00 210.14 C 217.00 205.65 215.21 204.41 210.45 205.60 C 208.38 206.12 207.86 205.96 208.23 204.89 C 208.51 204.13 208.30 202.66 207.77 201.63 C 207.09 200.31 207.13 199.96 207.90 200.44 C 208.59 200.86 209.00 200.17 209.00 198.56 C 209.00 197.15 208.66 196.11 208.25 196.25 C 207.84 196.39 207.50 196.05 207.50 195.50 C 207.50 194.95 207.95 194.62 208.50 194.76 C 209.05 194.91 208.81 194.46 207.97 193.76 C 206.90 192.89 206.62 191.58 207.06 189.50 L 207.68 186.50 L 208.18 190.00 C 208.59 192.90 208.71 192.60 208.84 188.25 C 208.99 183.48 209.21 183.00 211.30 183.00 C 215.82 183.00 216.22 185.02 212.57 189.48 C 209.99 192.63 209.42 194.00 210.15 195.30 C 211.38 197.51 214.62 197.48 215.92 195.25 C 216.89 193.58 216.94 193.58 216.97 195.25 C 216.99 196.32 217.77 197.00 219.00 197.00 C 220.54 197.00 221.00 196.33 221.00 194.12 C 221.00 191.54 223.41 188.07 224.47 189.13 C 224.69 189.36 225.02 192.46 225.19 196.02 C 225.36 199.59 225.95 202.83 226.50 203.23 C 227.12 203.69 227.02 203.98 226.25 203.98 C 225.56 203.99 225.00 204.48 225.00 205.06 C 225.00 205.64 225.56 205.78 226.25 205.37 C 227.20 204.80 227.19 205.00 226.21 206.21 C 225.15 207.51 225.15 207.88 226.21 208.24 C 227.23 208.58 227.56 217.24 227.80 249.58 C 227.96 272.09 227.83 291.97 227.50 293.77 C 227.17 295.57 225.51 298.63 223.80 300.57 C 217.67 307.56 222.54 307.18 142.90 306.90 C 103.36 306.76 71.00 306.28 71.00 305.82Z"/></g>
<g fill="#A0375FFD">
<path d="M 247.71 165.22 L 243.00 160.43 L 243.00 117.43 L 243.00 74.42 L 247.78 69.71 L 252.57 65.00 L 288.57 65.00 L 324.58 65.00 L 329.29 69.78 L 334.00 74.57 L 334.00 84.78 L 334.00 95.00 L 325.00 95.00 L 316.00 95.00 L 316.00 89.53 L 316.00 84.07 L 290.25 83.78 C 276.09 83.63 263.71 83.67 262.74 83.87 C 261.09 84.22 260.99 86.41 261.24 117.37 L 261.50 150.50 L 288.50 150.50 L 315.50 150.50 L 315.80 145.25 L 316.10 140.00 L 325.05 140.00 L 334.00 140.00 L 334.00 150.36 L 334.00 160.73 L 329.04 165.36 L 324.09 170.00 L 288.26 170.00 L 252.42 170.00 L 247.71 165.22Z"/></g>
<g fill="#A0375FFD">
<path d="M 65.08 225.78 C 65.03 224.76 64.45 224.27 63.64 224.59 C 61.59 225.37 61.00 220.70 61.00 203.69 C 61.00 186.46 62.20 182.37 68.54 178.08 L 72.11 175.67 L 121.37 175.58 L 170.64 175.50 L 174.39 178.35 C 176.45 179.92 178.60 182.40 179.18 183.85 C 179.75 185.31 180.62 187.28 181.11 188.24 C 182.12 190.20 182.32 200.01 181.40 202.41 C 181.06 203.28 180.39 203.74 179.90 203.44 C 178.56 202.61 178.81 204.40 180.25 205.93 C 181.26 206.99 181.22 207.16 180.04 206.80 C 179.23 206.56 177.66 207.35 176.54 208.56 C 172.00 213.46 168.17 214.65 157.50 214.50 C 146.29 214.35 141.22 213.47 141.28 211.70 C 141.40 207.90 140.89 205.95 139.93 206.54 C 139.34 206.91 139.07 207.75 139.33 208.42 C 139.59 209.09 138.95 210.18 137.90 210.83 C 136.35 211.80 136.00 211.74 136.00 210.53 C 136.00 209.71 135.30 207.30 134.45 205.16 C 133.22 202.08 132.10 201.02 128.98 199.99 C 126.83 199.28 125.27 198.37 125.52 197.96 C 126.22 196.83 122.79 196.28 120.00 197.08 C 118.62 197.48 117.95 197.86 118.50 197.92 C 119.05 197.99 117.70 198.92 115.50 200.00 C 113.30 201.08 110.69 202.53 109.70 203.23 C 108.18 204.30 107.73 204.22 106.90 202.75 C 106.35 201.79 105.08 201.00 104.07 201.00 C 101.89 201.00 100.50 205.06 102.29 206.20 C 103.23 206.80 103.22 206.97 102.25 206.98 C 101.56 206.99 101.00 207.83 101.00 208.85 C 101.00 209.86 100.00 211.55 98.77 212.60 C 96.95 214.15 96.79 214.17 97.89 212.75 C 98.87 211.49 98.91 211.00 98.06 211.00 C 97.32 211.00 97.08 210.14 97.42 208.75 C 97.73 207.51 97.72 207.06 97.41 207.75 C 97.09 208.44 95.77 209.00 94.48 209.00 C 93.18 209.00 91.84 209.45 91.50 210.00 C 91.16 210.55 89.56 211.00 87.94 211.00 C 86.32 211.00 85.00 211.36 85.00 211.81 C 85.00 212.72 73.13 217.00 70.62 217.00 C 69.73 217.00 69.00 217.50 69.00 218.12 C 69.00 218.77 69.83 218.98 71.00 218.62 C 72.10 218.28 73.90 217.72 75.00 217.38 C 78.63 216.26 77.08 218.49 73.00 220.26 C 70.80 221.21 69.00 222.67 69.00 223.50 C 69.00 224.32 68.36 225.00 67.58 225.00 C 66.80 225.00 65.94 225.56 65.66 226.25 C 65.36 227.01 65.13 226.82 65.08 225.78Z"/></g>
<g fill="#5F4C65FE">
<path d="M 209.52 212.25 C 208.86 207.86 207.75 206.05 205.68 206.02 C 205.23 206.01 205.14 206.86 205.47 207.92 C 205.81 208.97 205.61 210.12 205.04 210.47 C 204.33 210.91 204.00 203.52 204.00 187.23 C 204.00 163.56 203.98 163.33 201.69 161.17 C 199.37 159.00 199.36 159.00 148.27 159.00 C 120.16 159.00 96.45 158.73 95.58 158.39 C 94.27 157.89 94.00 155.90 94.00 146.86 L 94.00 135.94 L 155.33 136.22 L 216.66 136.50 L 220.44 139.38 C 227.68 144.91 227.97 146.53 227.86 181.00 C 227.81 197.78 227.56 210.71 227.31 209.75 C 227.06 208.79 226.38 208.00 225.80 208.00 C 225.20 208.00 225.34 207.28 226.13 206.31 C 227.06 205.16 227.10 204.86 226.25 205.37 C 225.56 205.78 225.00 205.64 225.00 205.06 C 225.00 204.48 225.56 203.99 226.25 203.98 C 227.02 203.98 227.12 203.69 226.50 203.23 C 225.95 202.83 225.36 199.59 225.19 196.02 C 225.02 192.46 224.69 189.36 224.47 189.13 C 223.41 188.07 221.00 191.54 221.00 194.12 C 221.00 196.33 220.54 197.00 219.00 197.00 C 217.77 197.00 216.99 196.32 216.97 195.25 C 216.94 193.58 216.89 193.58 215.92 195.25 C 214.62 197.48 211.38 197.51 210.15 195.30 C 209.42 194.00 209.99 192.63 212.57 189.48 C 216.22 185.02 215.82 183.00 211.30 183.00 C 209.21 183.00 208.99 183.48 208.84 188.25 C 208.71 192.60 208.59 192.90 208.18 190.00 L 207.68 186.50 L 207.06 189.50 C 206.62 191.58 206.90 192.89 207.97 193.76 C 208.81 194.46 208.98 194.91 208.35 194.76 C 207.72 194.62 207.20 194.95 207.20 195.50 C 207.20 196.05 207.60 196.39 208.10 196.25 C 208.59 196.11 209.00 197.15 209.00 198.56 C 209.00 200.17 208.59 200.86 207.90 200.44 C 207.13 199.96 207.09 200.31 207.77 201.63 C 208.30 202.66 208.51 204.13 208.23 204.89 C 207.86 205.96 208.38 206.12 210.45 205.60 C 215.21 204.41 217.00 205.65 217.00 210.14 C 217.00 214.50 215.25 217.00 212.18 217.00 C 210.62 217.00 210.09 216.06 209.52 212.25Z"/></g>
<g fill="#5F4C65FE">
<path d="M 66.39 306.75 C 66.69 305.79 66.50 305.00 65.97 305.00 C 65.44 305.00 65.00 305.48 65.00 306.06 C 65.00 306.78 59.13 307.02 46.67 306.81 C 28.52 306.50 28.30 306.47 24.81 303.81 C 17.76 298.42 18.00 300.88 18.00 235.07 L 18.00 175.94 L 29.53 176.22 L 41.06 176.50 L 41.28 228.65 C 41.49 278.21 41.59 280.89 43.39 282.88 C 45.20 284.88 46.36 284.98 71.39 285.23 C 93.81 285.46 97.50 285.71 97.50 287.00 C 97.50 288.22 95.98 288.48 89.50 288.41 C 85.10 288.37 83.64 288.50 86.25 288.72 C 88.86 288.93 91.00 289.53 91.00 290.05 C 91.00 290.57 90.55 291.00 90.00 291.00 C 89.45 291.00 89.00 291.71 89.00 292.57 C 89.00 294.59 86.59 297.00 84.57 297.00 C 83.71 297.00 83.00 297.45 83.00 298.00 C 83.00 298.55 82.28 299.00 81.40 299.00 C 80.52 299.00 78.54 300.35 77.00 302.00 C 75.46 303.65 73.48 305.00 72.60 305.00 C 71.72 305.00 71.00 305.45 71.00 306.00 C 71.00 306.55 70.52 307.00 69.94 307.00 C 69.36 307.00 69.16 306.55 69.50 306.00 C 70.55 304.31 68.81 304.89 67.28 306.75 C 65.91 308.42 65.86 308.42 66.39 306.75Z"/></g>
<g fill="#A0375FFD">
<path d="M 383.66 169.33 C 383.25 168.92 382.96 161.37 383.00 152.54 C 383.05 143.72 383.07 135.13 383.04 133.45 C 383.01 130.76 381.71 129.44 371.75 121.97 C 365.56 117.33 357.46 111.11 353.75 108.15 L 347.00 102.77 L 347.00 83.89 L 347.00 65.00 L 356.52 65.00 L 366.04 65.00 L 365.88 78.98 C 365.76 88.62 366.09 93.40 366.92 94.40 C 369.11 97.04 391.98 114.00 393.35 114.00 C 394.09 114.00 395.41 113.21 396.28 112.25 C 397.15 111.29 402.84 106.90 408.92 102.50 L 419.96 94.50 L 419.98 79.75 L 420.00 65.00 L 429.50 65.00 L 439.00 65.00 L 438.91 79.75 C 438.86 87.86 438.53 96.73 438.16 99.45 L 437.50 104.40 L 420.04 117.21 C 410.43 124.25 402.20 130.69 401.73 131.51 C 401.27 132.33 401.03 141.22 401.20 151.25 L 401.50 169.50 L 392.95 169.79 C 388.25 169.94 384.07 169.74 383.66 169.33Z"/></g>
<g fill="#5F4C65FE">
<path d="M 260.25 299.21 L 256.00 298.89 L 256.00 247.57 L 256.00 196.26 L 264.12 195.55 C 268.59 195.16 272.63 195.23 273.11 195.71 C 273.59 196.19 274.10 215.69 274.24 239.04 L 274.50 281.50 L 300.00 281.64 C 314.02 281.72 328.76 281.83 332.75 281.89 L 340.00 282.00 L 340.00 290.50 C 340.00 295.18 339.66 299.05 339.25 299.12 C 337.38 299.41 264.03 299.50 260.25 299.21Z"/></g>
<g fill="#5F4C65FE">
<path d="M 92.08 303.25 C 94.62 299.88 96.42 299.00 100.69 299.00 C 103.06 299.00 105.00 298.55 105.00 298.00 C 105.00 297.45 104.33 297.00 103.50 297.00 C 102.67 297.00 102.00 296.58 102.00 296.07 C 102.00 295.56 102.67 294.47 103.50 293.64 C 104.33 292.82 105.00 291.66 105.00 291.07 C 105.00 290.48 105.90 290.00 107.00 290.00 C 108.10 290.00 109.00 289.60 109.00 289.10 C 109.00 288.61 107.09 288.34 104.75 288.50 C 100.82 288.77 99.05 287.89 99.02 285.63 C 99.01 285.15 99.76 285.37 100.69 286.13 C 101.84 287.06 102.14 287.10 101.63 286.25 C 101.07 285.32 102.16 285.00 105.94 285.00 C 108.72 285.00 111.00 285.44 111.00 285.97 C 111.00 286.50 110.21 286.64 109.25 286.27 C 108.00 285.79 108.28 286.53 110.25 288.88 C 113.11 292.28 113.82 295.00 111.86 295.00 C 111.23 295.00 110.14 294.21 109.42 293.25 C 108.20 291.60 108.04 291.61 106.59 293.50 C 105.75 294.60 105.25 296.06 105.50 296.75 C 106.45 299.46 104.79 301.00 100.89 301.00 C 95.94 301.00 95.41 303.68 100.25 304.28 C 102.04 304.50 100.63 304.75 97.13 304.84 C 91.21 304.99 90.85 304.88 92.08 303.25Z"/></g>
</svg>
