<?xml version="1.0" encoding="UTF-8"?>
<!-- Generator: visioncortex VTracer 0.6.12 -->
<svg width="640" height="200" viewBox="0 0 640 200" xmlns="http://www.w3.org/2000/svg" role="img" aria-label="Cyber Labs logo">
<path d="M0 0 C0.9371484375000136 0.41249999999999964 1.8742968749999989 0.8249999999999993 2.83984375 1.25 C18.766796773726895 9.112955770479477 28.290990733070032 22.53351872596233 34 39 C35.06222421789616 43.15356905715811 35.26372508577015 47.22019560654398 35.375 51.5 C35.423984375 52.7890625 35.47296875000001 54.078125 35.5234375 55.40625 C34.86988284617024 59.893341653159624 33.56868110915531 61.29025646439497 30 64 C27.9375 64.6640625 27.9375 64.6640625 26 64.625 C25.680312500000014 64.6314453125 25.680312500000014 64.6314453125 24.0625 64.6640625 C20.70186816406394 63.582040886156946 19.17934740299316 61.73237045016339 17 59 C16.31255213551509 56.37389163064972 15.870563058627198 54.09899933811906 15.5625 51.4375 C14.232921205384912 42.5760204723928 11.490000524092949 34.43205409084212 5 28 C5 27.340000000000003 5 26.68 5 26 C4.417343749999986 25.720273437499998 3.834687500000001 25.440546874999995 3.234375 25.15234375 C0.48002425681909244 23.731830691890963 -2.037309144425876 22.040122653210375 -4.609375 20.31640625 C-10.886495820043706 16.85988710562952 -16.59667828142875 15.440363168868558 -23.75 15.5 C-24.141391601562503 15.502135009765624 -24.141391601562503 15.502135009765624 -26.1220703125 15.512939453125 C-36.03914403386517 15.801084408273496 -43.7561243472512 19.32800926720506 -51 26 C-51.66 26 -52.31999999999999 26 -53 26 C-53.2797265625 26.58265625 -53.559453125000005 27.1653125 -53.84765625 27.765625 C-55.26816930810901 30.519975743180865 -56.959877346789625 33.0373091444259 -58.68359375 35.609375 C-62.89949916343289 43.26555931163482 -63.64992260140389 50.38889781698322 -64.1875 59 C-64.26935546875 60.156289062499994 -64.3512109375 61.312578125 -64.435546875 62.50390625 C-64.63445212329898 65.33538096107952 -64.82230748942416 68.16712837717503 -65 71 C-64.43107811927796 70.99446924209595 -63.86215623855591 70.98893848419189 -63.275994300842285 70.98324012756348 C-49.403242146020816 70.8504666098055 -35.5306020045918 70.75170012356583 -21.657349586486816 70.68912696838379 C-14.948172781311769 70.65824939359533 -8.239421297224482 70.6161875778288 -1.530517578125 70.54736328125 C4.9469407463257085 70.48205544842854 11.423957833181646 70.44626893074704 17.90172004699707 70.43073654174805 C20.370046041320933 70.41967097696119 22.838348544310264 70.39806222815237 25.306486129760742 70.36561965942383 C28.770524072227147 70.32190728109907 32.232751040149196 70.31607247585684 35.697021484375 70.31884765625 C36.7119467163086 70.29727600097657 37.72687194824218 70.27570434570312 38.772552490234375 70.25347900390625 C45.95214020515709 70.31550224477057 50.70894569025296 72.06096344583517 56 77 C59.825742450075296 81.49287086812527 60.5895667151521 86.23809329476053 60.54931640625 91.99560546875 C60.559538269042974 92.76245666503907 60.56976013183595 93.52930786132812 60.580291748046875 94.31939697265625 C60.60792249153087 96.83565136530885 60.60618307492129 99.35080013003002 60.6015625 101.8671875 C60.609345749823376 103.62924601858312 60.61801700768575 105.3913008170081 60.627532958984375 107.15335083007813 C60.64242284636086 110.84015076941648 60.641900754038346 114.52656756398073 60.63134765625 118.21337890625 C60.619766017633566 122.91999429065606 60.6536132238013 127.62503351711109 60.70003700256348 132.33138847351074 C60.72961445248353 135.9690556642732 60.73124139080144 139.60634776893602 60.72501754760742 143.24411392211914 C60.726038984732696 144.97834518237164 60.7364205290952 146.71259882281308 60.75664138793945 148.44671249389648 C60.92268061134516 164.67728652287823 60.92268061134516 164.67728652287823 55.970550537109375 171.27810668945313 C48.72609968667149 177.60840435147256 42.6972094331085 177.58540279409715 33.31298828125 177.54931640625 C31.927550313663346 177.5580211579736 30.5421219638626 177.56839096474994 29.156707763671875 177.58029174804688 C25.40859432595272 177.60698363727067 21.660885309399987 177.6082391166372 17.91269540786743 177.60316514968872 C14.776675522405924 177.60101949652656 11.640736426142041 177.6108083840541 8.504733920097351 177.62037599086761 C1.1022150733039666 177.64253622276132 -6.30010078166498 177.64345846814885 -13.70263671875 177.63134765625 C-21.323111463564416 177.61927139595642 -28.942847354214265 177.64388715344498 -36.56319606304169 177.68648779392242 C-43.12058378839487 177.72178947786358 -49.67773707775177 177.733711615448 -56.23521625995636 177.72721230983734 C-60.14520380127476 177.7235969386233 -64.05466433302638 177.72875338013304 -67.96456527709961 177.75664138793945 C-71.64379092415936 177.78190400841368 -75.32187030249095 177.7778144027246 -79.00107955932617 177.7518196105957 C-80.98290787395177 177.74487859212704 -82.96477205408021 177.76736847097402 -84.94647216796875 177.79095458984375 C-92.8142649266847 177.698750532191 -98.26147202985318 176.62959797051172 -104 171 C-107.81274684625964 166.49037991981822 -108.58963434694004 161.77158093763856 -108.54931640625 156.00439453125 C-108.55953826904297 155.23754333496095 -108.56976013183593 154.47069213867186 -108.58029174804688 153.68060302734375 C-108.60792249153086 151.16434863469115 -108.60618307492129 148.64919986996998 -108.6015625 146.1328125 C-108.60934574982339 144.37075398141687 -108.61801700768575 142.6086991829919 -108.62753295898438 140.84664916992188 C-108.64242284636086 137.15984923058335 -108.64190075403835 133.4734324360194 -108.63134765625 129.78662109375 C-108.61976601763357 125.08000570934391 -108.6536132238013 120.37496648288894 -108.70003700256348 115.66861152648926 C-108.72961445248353 112.03094433572689 -108.73124139080144 108.3936522310639 -108.72501754760742 104.75588607788086 C-108.72603898473271 103.02165481762836 -108.7364205290952 101.28740117718692 -108.75664138793945 99.55328750610352 C-108.92353325784129 83.23936604997733 -108.92353325784129 83.23936604997733 -103.59213256835938 76.58151245117188 C-99.93024676950225 72.94405279438607 -97.26701741543314 71.10596122694473 -91.99658203125 70.859619140625 C-90.9277880859375 70.87629638671875 -89.858994140625 70.8929736328125 -88.7578125 70.91015625 C-87.6790283203125 70.92312744140625 -86.600244140625 70.9360986328125 -85.48876953125 70.949462890625 C-84.6674755859375 70.96614013671875 -83.846181640625 70.9828173828125 -83 71 C-83.020947265625 70.25016845703125 -83.04189453125 69.5003369140625 -83.0634765625 68.727783203125 C-83.73733557771916 40.978013060571 -83.73733557771916 40.978013060571 -79 31 C-78.5875 30.069296875 -78.175 29.13859375 -77.75 28.1796875 C-69.93286551721408 12.234509776590102 -56.451883742629505 2.7039482316853025 -40 -3 C-27.151895310810673 -5.953023855661272 -12.068434442847888 -5.371208653284185 0 0 Z " fill="#AA2FB7" transform="translate(146,15)"/>
<path d="M0 0 C0.9371484375000136 0.41249999999999964 1.8742968749999989 0.8249999999999993 2.83984375 1.25 C18.766796773726895 9.112955770479477 28.290990733070032 22.53351872596233 34 39 C35.06222421789616 43.15356905715811 35.26372508577015 47.22019560654398 35.375 51.5 C35.423984375 52.7890625 35.47296875000001 54.078125 35.5234375 55.40625 C34.86988284617024 59.893341653159624 33.56868110915531 61.29025646439497 30 64 C27.9375 64.6640625 27.9375 64.6640625 26 64.625 C25.680312500000014 64.6314453125 25.680312500000014 64.6314453125 24.0625 64.6640625 C20.70186816406394 63.582040886156946 19.17934740299316 61.73237045016339 17 59 C16.31255213551509 56.37389163064972 15.870563058627198 54.09899933811906 15.5625 51.4375 C14.232921205384912 42.5760204723928 11.490000524092949 34.43205409084212 5 28 C5 27.340000000000003 5 26.68 5 26 C4.417343749999986 25.720273437499998 3.834687500000001 25.440546874999995 3.234375 25.15234375 C0.48002425681909244 23.731830691890963 -2.037309144425876 22.040122653210375 -4.609375 20.31640625 C-10.886495820043706 16.85988710562952 -16.59667828142875 15.440363168868558 -23.75 15.5 C-24.141391601562503 15.502135009765624 -24.141391601562503 15.502135009765624 -26.1220703125 15.512939453125 C-36.03914403386517 15.801084408273496 -43.7561243472512 19.32800926720506 -51 26 C-51.66 26 -52.31999999999999 26 -53 26 C-53.2797265625 26.58265625 -53.559453125000005 27.1653125 -53.84765625 27.765625 C-55.26816930810901 30.519975743180865 -56.959877346789625 33.0373091444259 -58.68359375 35.609375 C-62.89949916343289 43.26555931163482 -63.64992260140389 50.38889781698322 -64.1875 59 C-64.26935546875 60.156289062499994 -64.3512109375 61.312578125 -64.435546875 62.50390625 C-64.63445212329898 65.33538096107952 -64.82230748942416 68.16712837717503 -65 71 C-64.43107811927796 70.99446924209595 -63.86215623855591 70.98893848419189 -63.275994300842285 70.98324012756348 C-49.403242146020816 70.8504666098055 -35.5306020045918 70.75170012356583 -21.657349586486816 70.68912696838379 C-14.948172781311769 70.65824939359533 -8.239421297224482 70.6161875778288 -1.530517578125 70.54736328125 C4.9469407463257085 70.48205544842854 11.423957833181646 70.44626893074704 17.90172004699707 70.43073654174805 C20.370046041320933 70.41967097696119 22.838348544310264 70.39806222815237 25.306486129760742 70.36561965942383 C28.770524072227147 70.32190728109907 32.232751040149196 70.31607247585684 35.697021484375 70.31884765625 C36.7119467163086 70.29727600097657 37.72687194824218 70.27570434570312 38.772552490234375 70.25347900390625 C45.95214020515709 70.31550224477057 50.70894569025296 72.06096344583517 56 77 C59.825742450075296 81.49287086812527 60.5895667151521 86.23809329476053 60.54931640625 91.99560546875 C60.559538269042974 92.76245666503907 60.56976013183595 93.52930786132812 60.580291748046875 94.31939697265625 C60.60792249153087 96.83565136530885 60.60618307492129 99.35080013003002 60.6015625 101.8671875 C60.609345749823376 103.62924601858312 60.61801700768575 105.3913008170081 60.627532958984375 107.15335083007813 C60.64242284636086 110.84015076941648 60.641900754038346 114.52656756398073 60.63134765625 118.21337890625 C60.619766017633566 122.91999429065606 60.6536132238013 127.62503351711109 60.70003700256348 132.33138847351074 C60.72961445248353 135.9690556642732 60.73124139080144 139.60634776893602 60.72501754760742 143.24411392211914 C60.726038984732696 144.97834518237164 60.7364205290952 146.71259882281308 60.75664138793945 148.44671249389648 C60.92268061134516 164.67728652287823 60.92268061134516 164.67728652287823 55.970550537109375 171.27810668945313 C48.72609968667149 177.60840435147256 42.6972094331085 177.58540279409715 33.31298828125 177.54931640625 C31.927550313663346 177.5580211579736 30.5421219638626 177.56839096474994 29.156707763671875 177.58029174804688 C25.40859432595272 177.60698363727067 21.660885309399987 177.6082391166372 17.91269540786743 177.60316514968872 C14.776675522405924 177.60101949652656 11.640736426142041 177.6108083840541 8.504733920097351 177.62037599086761 C1.1022150733039666 177.64253622276132 -6.30010078166498 177.64345846814885 -13.70263671875 177.63134765625 C-21.323111463564416 177.61927139595642 -28.942847354214265 177.64388715344498 -36.56319606304169 177.68648779392242 C-43.12058378839487 177.72178947786358 -49.67773707775177 177.733711615448 -56.23521625995636 177.72721230983734 C-60.14520380127476 177.7235969386233 -64.05466433302638 177.72875338013304 -67.96456527709961 177.75664138793945 C-71.64379092415936 177.78190400841368 -75.32187030249095 177.7778144027246 -79.00107955932617 177.7518196105957 C-80.98290787395177 177.74487859212704 -82.96477205408021 177.76736847097402 -84.94647216796875 177.79095458984375 C-92.8142649266847 177.698750532191 -98.26147202985318 176.62959797051172 -104 171 C-107.81274684625964 166.49037991981822 -108.58963434694004 161.77158093763856 -108.54931640625 156.00439453125 C-108.55953826904297 155.23754333496095 -108.56976013183593 154.47069213867186 -108.58029174804688 153.68060302734375 C-108.60792249153086 151.16434863469115 -108.60618307492129 148.64919986996998 -108.6015625 146.1328125 C-108.60934574982339 144.37075398141687 -108.61801700768575 142.6086991829919 -108.62753295898438 140.84664916992188 C-108.64242284636086 137.15984923058335 -108.64190075403835 133.4734324360194 -108.63134765625 129.78662109375 C-108.61976601763357 125.08000570934391 -108.6536132238013 120.37496648288894 -108.70003700256348 115.66861152648926 C-108.72961445248353 112.03094433572689 -108.73124139080144 108.3936522310639 -108.72501754760742 104.75588607788086 C-108.72603898473271 103.02165481762836 -108.7364205290952 101.28740117718692 -108.75664138793945 99.55328750610352 C-108.92353325784129 83.23936604997733 -108.92353325784129 83.23936604997733 -103.59213256835938 76.58151245117188 C-99.93024676950225 72.94405279438607 -97.26701741543314 71.10596122694473 -91.99658203125 70.859619140625 C-90.9277880859375 70.87629638671875 -89.858994140625 70.8929736328125 -88.7578125 70.91015625 C-87.6790283203125 70.92312744140625 -86.600244140625 70.9360986328125 -85.48876953125 70.949462890625 C-84.6674755859375 70.96614013671875 -83.846181640625 70.9828173828125 -83 71 C-83.020947265625 70.25016845703125 -83.04189453125 69.5003369140625 -83.0634765625 68.727783203125 C-83.73733557771916 40.978013060571 -83.73733557771916 40.978013060571 -79 31 C-78.5875 30.069296875 -78.175 29.13859375 -77.75 28.1796875 C-69.93286551721408 12.234509776590102 -56.451883742629505 2.7039482316853025 -40 -3 C-27.151895310810673 -5.953023855661272 -12.068434442847888 -5.371208653284185 0 0 Z M-94 91 C-95.04578596442383 94.1373578932715 -95.13915830426384 96.36787460697795 -95.1611328125 99.661376953125 C-95.17074035644532 100.82300857543945 -95.18034790039063 101.9846401977539 -95.19024658203125 103.18147277832031 C-95.19449645996093 104.4377195739746 -95.19874633789063 105.69396636962891 -95.203125 106.98828125 C-95.2088250732422 108.27937301635743 -95.21452514648438 109.57046478271485 -95.22039794921875 110.90068054199219 C-95.2308979418505 113.63520704060252 -95.23674689942912 116.36970423242539 -95.240234375 119.104248046875 C-95.24571192074703 122.59790787315899 -95.26972775869555 126.0911765578577 -95.2982063293457 129.58471393585205 C-95.32138134792599 132.92756192718917 -95.32328570645883 136.27035711248777 -95.328125 139.61328125 C-95.34047180175781 140.8634553527832 -95.35281860351563 142.1136294555664 -95.36553955078125 143.4016876220703 C-95.34820054475409 150.16771106290878 -95.31443260808481 155.4494246106776 -90.46484375 160.64453125 C-86.3918493089457 163.75917405786504 -84.36512190455365 165.12302064834503 -79.28216552734375 165.14044189453125 C-78.28680282592774 165.1461520385742 -77.29144012451172 165.1518621826172 -76.26591491699219 165.15774536132813 C-75.16979385375977 165.15886322021484 -74.07367279052734 165.15998107910156 -72.9443359375 165.1611328125 C-72.36867134094238 165.16361526489257 -72.36867134094238 165.16361526489257 -69.45545959472656 165.17617797851563 C-65.63175873135359 165.19082945197817 -61.80809936841325 165.19760697648303 -57.984375 165.203125 C-56.00322439193471 165.2074220751279 -54.02207378382431 165.2117196576089 -52.04092335700989 165.21609950065613 C-46.51809965608321 165.22791681915243 -40.995286031964966 165.2354498424087 -35.472450971603394 165.23889470100403 C-28.333663619126924 165.2433720113944 -21.19506806613994 165.260903019598 -14.056339025497437 165.2898952960968 C-8.536926029555502 165.3115314608326 -3.0175669060871826 165.32160006251792 2.5018880367279053 165.32293581962585 C5.797489287725085 165.32398277230118 9.09286950391217 165.3313162250631 12.388435363769531 165.3477554321289 C16.06802406635387 165.36479818099724 19.747145719012195 165.36293952656786 23.4267578125 165.3564453125 C24.514781951904297 165.36566009521485 25.602806091308594 165.3748748779297 26.723800659179688 165.38436889648438 C33.47460140965208 165.34702072187832 37.92107287698025 164.56577260251646 43.25 160.125 C46.586039486386596 156.07409490938772 47.25193397821087 152.2697514577918 47.29052734375 147.111572265625 C47.303287048339854 145.95009170532228 47.31604675292968 144.78861114501953 47.329193115234375 143.59193420410156 C47.33141876220702 142.34600997924804 47.3336444091797 141.10008575439454 47.3359375 139.81640625 C47.3425942993164 138.52814437866212 47.349251098632806 137.2398825073242 47.356109619140625 135.91258239746094 C47.36805832409681 133.189978509164 47.37179284968701 130.46750128904645 47.37060546875 127.744873046875 C47.37040219150387 124.26679936551164 47.397722538997016 120.78954197988531 47.43214988708496 117.31166172027588 C47.45981276824344 113.97989813146842 47.458569030596664 110.64828311708207 47.4609375 107.31640625 C47.468123016357424 106.69445625305175 47.468123016357424 106.69445625305175 47.504486083984375 103.54701232910156 C47.44783900396189 92.82537035584458 47.44783900396189 92.82537035584458 43 88 C38.77782978102471 84.18974882677838 35.797205345691 82.87888709291293 30.155181884765625 82.85955810546875 C29.15699935913085 82.85384796142579 28.158816833496076 82.8481378173828 27.130386352539063 82.84225463867188 C26.036289520263665 82.84113677978516 24.942192687988268 82.84001892089844 23.81494140625 82.8388671875 C22.661859893798834 82.83390228271485 21.508778381347668 82.82893737792969 20.320755004882813 82.82382202148438 C16.497684818794482 82.80918986978772 12.674656112453022 82.80239698308418 8.8515625 82.796875 C6.869763115948928 82.79257760914642 4.887963731892569 82.78827970479863 2.906164526939392 82.78390049934387 C-2.615805396006124 82.77209060929296 -8.137765259295264 82.7645524546315 -13.659746527671814 82.76110529899597 C-20.798533722973673 82.7566241571097 -27.937129486265547 82.73907212662557 -35.07585847377777 82.7101047039032 C-40.596125255673996 82.6884829989197 -46.11633819272548 82.67840077685851 -51.6366468667984 82.67706418037415 C-54.93276025060328 82.67601657029596 -58.2286526088692 82.66867179162152 -61.52473068237305 82.6522445678711 C-65.20201955695613 82.63522422337094 -68.87884025738808 82.63705469965954 -72.55615234375 82.6435546875 C-73.64620071411133 82.63433990478515 -74.73624908447266 82.62512512207032 -75.85932922363281 82.61563110351563 C-84.3226937767116 82.66258540666483 -88.262212737584 84.62468081953777 -94 91 Z " fill="#AA2FB6" transform="translate(146,15)"/>
<path d="M0 0 C0.9371484375000136 0.41249999999999964 1.8742968749999989 0.8249999999999993 2.83984375 1.25 C18.766796773726867 9.112955770479473 28.290990733070032 22.533518725962338 34 39 C35.06222421789619 43.15356905715809 35.26372508577015 47.220195606543996 35.375 51.5 C35.423984375 52.7890625 35.47296875000001 54.078125 35.5234375 55.40625 C34.86988284617024 59.89334165315964 33.56868110915531 61.29025646439496 30 64 C27.9375 64.6640625 27.9375 64.6640625 26 64.625 C25.680312500000014 64.6314453125 25.680312500000014 64.6314453125 24.0625 64.6640625 C20.70186816406394 63.582040886156946 19.17934740299316 61.73237045016339 17 59 C16.31255213551509 56.37389163064972 15.870563058627198 54.09899933811906 15.5625 51.4375 C14.232921205384912 42.576020472392806 11.490000524092949 34.432054090842115 5 28 C5 27.340000000000003 5 26.68 5 26 C4.417343749999986 25.720273437499998 3.834687500000001 25.440546874999995 3.234375 25.15234375 C0.48002425681909244 23.73183069189097 -2.037309144425876 22.04012265321039 -4.609375 20.31640625 C-10.886495820043706 16.85988710562952 -16.59667828142875 15.440363168868558 -23.75 15.5 C-24.141391601562503 15.502135009765624 -24.141391601562503 15.502135009765624 -26.1220703125 15.512939453125 C-36.03914403386517 15.801084408273496 -43.756124347251216 19.32800926720506 -51 26 C-51.66 26 -52.31999999999999 26 -53 26 C-53.2797265625 26.58265625 -53.559453125000005 27.1653125 -53.84765625 27.765625 C-55.26816930810901 30.519975743180865 -56.959877346789625 33.037309144425905 -58.68359375 35.609375 C-62.90983452121347 43.284328566714066 -63.64836752484224 50.36398805848222 -64.1875 59 C-64.26935546875 60.156289062499994 -64.3512109375 61.312578125 -64.435546875 62.50390625 C-64.63443964911009 65.33520338733186 -64.81870432146975 68.16752163425683 -65 71 C-70.94 71 -76.88 71 -83 71 C-83.77283157411657 41.05277650298302 -83.77283157411657 41.05277650298302 -79 31 C-78.5875 30.069296875 -78.175 29.13859375 -77.75 28.1796875 C-69.93286551721408 12.234509776590105 -56.451883742629505 2.7039482316853025 -40 -3 C-27.15189531081066 -5.953023855661277 -12.068434442847888 -5.371208653284189 0 0 Z " fill="#8D59FA" transform="translate(146,15)"/>
<path d="M0 0 C0.9967373657226517 -0.005710144042964771 1.9934747314453176 -0.011420288085943753 3.020416259765625 -0.017303466796875 C4.112942047119134 -0.01842132568359034 5.205467834472657 -0.01953918457030568 6.3311004638671875 -0.02069091796875 C6.906838073730469 -0.023173370361334378 6.906838073730469 -0.023173370361334378 9.820419311523438 -0.035736083984375 C13.638682988839065 -0.05036939934903728 17.456905121649697 -0.05716164037589522 21.275192260742188 -0.06268310546875 C23.25515361613951 -0.06698062451428655 25.23511497152623 -0.07127865946779366 27.21507614850998 -0.07565760612487793 C32.73281998265034 -0.08746828795045758 38.25055374770841 -0.09500579719777136 43.76830893754959 -0.09845280647277832 C50.89859621389098 -0.10293193520003285 58.028691637867354 -0.1204740955032122 65.15892058610916 -0.14945340156555176 C70.67410749409163 -0.17108867858704002 76.18924049928347 -0.1811580804724997 81.70446938276291 -0.1824939250946045 C84.99670236703713 -0.1835407154866573 88.28871409384595 -0.19087195165943172 91.58091163635254 -0.20731353759765625 C95.25560183673201 -0.22435541381511825 98.92982434966635 -0.2224979927875097 102.60453796386719 -0.21600341796875 C103.14776451110839 -0.22061080932617472 103.14776451110839 -0.22061080932617472 105.89682006835938 -0.243927001953125 C112.17852119969564 -0.2091241132950472 116.9946806501867 0.183858683846438 121.80644226074219 4.67559814453125 C125.19770562165832 9.110327154960046 126.28614802042097 11.146413268671182 126.32304382324219 16.68829345703125 C126.33265136718751 17.850000610351557 126.3422589111328 19.01170776367188 126.35215759277344 20.2086181640625 C126.35428253173828 20.83932220458985 126.35428253173828 20.83932220458985 126.36503601074219 24.03106689453125 C126.37073608398438 25.323573608398434 126.37643615722655 26.616080322265617 126.38230895996094 27.94775390625 C126.392820221047 30.688256768753888 126.39866143921247 33.428730299827805 126.40214538574219 36.16925048828125 C126.40761764353991 39.67078611207117 126.43161730829613 43.17193041629139 126.46011734008789 46.673343658447266 C126.48329729994009 50.021743607600285 126.48519754849937 53.37009089012588 126.49003601074219 56.71856689453125 C126.5023828125 57.97187805175781 126.51472961425782 59.225189208984375 126.52745056152344 60.5164794921875 C126.52444946289063 61.69079528808595 126.52144836425782 62.865111083984374 126.51835632324219 64.07501220703125 C126.52017913818361 64.58939849853516 126.52017913818361 64.58939849853516 126.52940368652344 67.1925048828125 C125.85556445743597 72.59787955906154 123.33258095938137 76.70577252506371 119.16191101074219 80.14044189453125 C115.68097602681078 81.78313057166537 112.91914709724844 82.3930068938451 109.08331298828125 82.40786743164063 C108.08382629394532 82.41639739990234 107.0843395996094 82.42492736816405 106.0545654296875 82.4337158203125 C105.51189781188964 82.43326263427736 105.51189781188964 82.43326263427736 102.76567077636719 82.43096923828125 C101.61390350341799 82.43768646240233 100.46213623046873 82.44440368652346 99.27546691894531 82.45132446289063 C95.46803983007143 82.47032288904171 91.66078879825145 82.47422943157173 87.85331726074219 82.47637939453125 C85.20682705878687 82.48280529841401 82.5603375749825 82.4895335019149 79.91384887695313 82.49655151367188 C74.3665603968335 82.50933077398739 68.81931964412504 82.51231749706477 63.27201843261719 82.51104736328125 C56.86727303052592 82.5098455882503 50.46286441151294 82.53095812517023 44.05820423364639 82.56253468990326 C37.88748464682001 82.59186966934342 31.71692635071841 82.59902268626081 25.546140670776367 82.59782791137695 C22.924673063020094 82.60018918833009 20.30320300108407 82.60904217160171 17.681779861450195 82.62449264526367 C14.016750080758825 82.64407380083594 10.352589357409641 82.63834485480766 6.6875457763671875 82.62628173828125 C5.604234771728514 82.6375207519531 4.52092376708984 82.64875976562502 3.40478515625 82.66033935546875 C-2.6750450819882587 82.60945316906066 -6.213611194116993 82.20333167108055 -10.838088989257813 78.14044189453125 C-14.928587878557181 73.60772690909141 -15.959107932431998 70.49311500443736 -15.999221801757813 64.46319580078125 C-16.004025573730466 63.88076614379884 -16.004025573730466 63.88076614379884 -16.028335571289063 60.933319091796875 C-16.03258544921875 59.67393524169921 -16.036835327148438 58.41455139160155 -16.041213989257813 57.11700439453125 C-16.0469140625 55.823540954589845 -16.05261413574219 54.53007751464844 -16.058486938476563 53.197418212890625 C-16.068985717238803 50.45869555299504 -16.0748357407347 47.72000215179702 -16.078323364257813 44.98126220703125 C-16.083806367983705 41.478536660139895 -16.107834405335346 37.976200172039455 -16.136295318603516 34.47359657287598 C-16.159441560200214 31.125573339325143 -16.16137249849435 27.777603493627666 -16.166213989257813 24.42950439453125 C-16.178560791015627 23.174169006347654 -16.190907592773435 21.918833618164058 -16.203628540039063 20.625457763671875 C-16.200627441406247 19.45429412841797 -16.19762634277344 18.283130493164066 -16.194534301757813 17.07647705078125 C-16.198179931640624 16.048500061035156 -16.201825561523435 15.020523071289063 -16.205581665039063 13.961395263671875 C-15.472792036840339 8.336343373470456 -11.933380921161252 4.826204633244345 -7.8380889892578125 1.14044189453125 C-4.917517359409082 0.16691801791500893 -3.0406347066334547 0.010432504620780492 0 0 Z M-10.838088989257813 10.14044189453125 C-12.132135425643405 12.728534767302435 -11.979294977050039 14.622376781253607 -11.999221801757813 17.52056884765625 C-12.008829345703127 18.6454621887207 -12.018436889648434 19.77035552978515 -12.028335571289063 20.929336547851563 C-12.03258544921875 22.15013412475585 -12.036835327148438 23.370931701660155 -12.041213989257813 24.62872314453125 C-12.0469140625 25.879209442138674 -12.05261413574219 27.129695739746097 -12.058486938476563 28.418075561523438 C-12.067948077099402 31.06865073022618 -12.074839020317896 33.71911236988208 -12.078323364257813 36.36968994140625 C-12.083800505752237 39.75922909808506 -12.107811362909239 43.148364997546764 -12.136295318603516 46.5377779006958 C-12.15945104665063 49.77639568294302 -12.161373697028111 53.015034169792784 -12.166213989257813 56.25372314453125 C-12.178560791015627 57.46844802856447 -12.190907592773435 58.683172912597655 -12.203628540039063 59.93470764160156 C-12.200627441406247 61.06905746459961 -12.19762634277344 62.203407287597656 -12.194534301757813 63.37213134765625 C-12.198179931640624 64.36759475708007 -12.201825561523435 65.36305816650389 -12.205581665039063 66.38868713378906 C-11.625838216953625 70.7297581221747 -9.680467249956862 73.17217059513263 -6.8561248779296875 76.41860961914063 C-2.216381241765717 79.06564916306104 2.1956387496750978 78.71399188783175 7.4504852294921875 78.68975830078125 C8.020688934326174 78.69486923217772 8.020688934326174 78.69486923217772 10.906265258789063 78.72073364257813 C14.676589818782631 78.74853671457026 18.44618361084396 78.74661139208098 22.216598510742188 78.74200439453125 C24.838274862441665 78.74977796693076 27.459948698724418 78.75844723594147 30.081619262695313 78.76797485351563 C35.57768734241503 78.7843909708082 41.07354976490774 78.78259195824558 46.56962585449219 78.77178955078125 C52.91207305596659 78.75971475490806 59.253632353945164 78.78432186915416 65.59592807292938 78.82692968845367 C71.70904651707832 78.86647974078173 77.82175133990484 78.87250100422116 83.93498611450195 78.86545944213867 C86.53051462126797 78.86648589871277 89.12605730956909 78.87696212476169 91.72150802612305 78.8970832824707 C95.35321505072764 78.92178120225907 98.98287307396538 78.90825095454232 102.61454772949219 78.88507080078125 C103.68491271972658 78.90035827636717 104.75527770996092 78.91564575195312 105.85807800292969 78.931396484375 C111.98688265823088 78.84500890927069 115.47401100957052 78.02965473093906 119.93896675109863 73.7197322845459 C122.36934045379255 70.58118708713229 122.309204689203 67.49004619730172 122.37065124511719 63.67852783203125 C122.38029655456543 63.119346618652344 122.38029655456543 63.119346618652344 122.42910766601563 60.28955078125 C122.48688248102968 55.17495702100064 122.53642397045283 50.060445240784816 122.56694030761719 44.94561767578125 C122.58473088271052 42.24884269234286 122.61951483799166 39.553117947815565 122.66947937011719 36.85675048828125 C122.73643553346898 32.96662122535798 122.76393430540364 29.077940917162408 122.78300476074219 25.18731689453125 C122.79692008972168 24.58668426513671 122.79692008972168 24.58668426513671 122.86734008789063 21.547119140625 C122.85138577823628 15.043667660403514 122.4266123140437 11.027015867477488 117.74554443359375 6.3106689453125 C114.76151045046024 4.105614898634514 111.97879649499114 4.008658116912528 108.40647888183594 3.9798126220703125 C107.42801498413087 3.9697669982910213 106.4495510864258 3.959721374511716 105.44143676757813 3.949371337890625 C104.90531013488769 3.9464558410644486 104.90531013488769 3.9464558410644486 102.19218444824219 3.93170166015625 C101.0618226623535 3.9219178771972594 99.93146087646483 3.912134094238283 98.766845703125 3.9020538330078125 C95.01833782364639 3.8720882441636206 91.26986562041475 3.8507119230173146 87.52128601074219 3.83184814453125 C86.24196449279785 3.8252763175964333 84.96264297485351 3.8187044906616165 83.6445541381836 3.8119335174560547 C78.26754061467886 3.7860460026084723 72.89054029154681 3.762557408428762 67.51348495483398 3.7474374771118164 C59.81714147043937 3.725539355647811 52.121496310596 3.6835802528465678 44.425431966781616 3.613999903202057 C38.35511187669675 3.5609884166981374 32.28506730130627 3.5409477348856484 26.21453094482422 3.5322399139404297 C23.63571502557349 3.523673130824193 21.05691195988652 3.5048253202365345 18.478248596191406 3.475496292114258 C14.868016989948984 3.4366430374862205 11.259606268081214 3.435540288182011 7.6492156982421875 3.44342041015625 C6.585059356689456 3.423419799804691 5.520903015136724 3.403419189453132 4.42449951171875 3.3828125 C-2.4329988590767186 3.449972073883302 -6.395767740219142 4.761641601026184 -10.838088989257813 10.14044189453125 Z " fill="#D89FDE" transform="translate(66.83808898925781,97.85955810546875)"/>
<path d="M0 0 C5.3212500000000205 -0.06187500000000057 10.642499999999984 -0.12375000000000114 16.125 -0.1875 C16.959104003906248 -0.20115600585937443 16.959104003906248 -0.20115600585937443 21.18017578125 -0.270263671875 C22.518547347898277 -0.2790344384293775 23.856926983649487 -0.2866769790506254 25.1953125 -0.29296875 C25.87714599609376 -0.3083166503906227 26.558979492187518 -0.32366455078124545 27.261474609375 -0.3394775390625 C31.92294434339965 -0.3420027122661935 35.039155040594096 0.5580491791348976 39 3 C43.07636649869232 7.406882701288964 44.33435856051409 10.815459107462686 44.30078125 16.859375 C43.78981128578164 20.495888511580176 42.01879699949154 22.971804500762744 40 26 C39.34000000000003 26 38.68000000000001 26 38 26 C38 26.659999999999997 38 27.319999999999993 38 28 C38.577499999999986 28.226875000000007 39.15499999999997 28.453750000000014 39.75 28.6875 C43.560837743734396 30.910488683845074 45.619296640389734 33.85788992116912 47 38 C47.422219269323534 43.488850501206116 46.71064612837091 47.19078912708386 44 52 C39.923544304588916 56.288469939616874 36.64166343830965 58.91336670436462 30.538330078125 59.113525390625 C29.11538732509848 59.113276145091106 27.69243798254473 59.10778398384707 26.26953125 59.09765625 C25.60417358398439 59.096649169921875 24.938815917968725 59.09564208984375 24.2532958984375 59.0946044921875 C21.773013012633726 59.08938106075857 19.292754736339475 59.07541977989243 16.8125 59.0625 C11.264374999999973 59.041875000000005 5.716250000000002 59.02125000000001 0 59 C0 39.53 0 20.060000000000002 0 0 Z M9 7 C9 12.939999999999998 9 18.879999999999995 9 25 C29.30000000000001 25.36250000000001 29.30000000000001 25.36250000000001 34 21.25 C35.3477528129946 18.21755617076215 35.470056949043055 16.290398643301216 35 13 C33.27526282170152 10.125438036169214 32.17807116833353 8.356058823264988 28.90625 7.3671875 C24.986468298062903 6.871946263464935 21.133125089346095 6.894838471428955 17.1875 6.9375 C15.836562500000014 6.947812499999998 15.836562500000014 6.947812499999998 9 7 Z M9 32 C9 38.599999999999994 9 45.19999999999999 9 52 C10.495312500000011 52.03093749999999 10.495312500000011 52.03093749999999 18.0625 52.1875 C18.990705566406234 52.21481201171875 19.918911132812525 52.2421240234375 20.875244140625 52.270263671875 C26.372180949823417 52.3248865079959 30.147441786841455 51.63136121571796 35 49 C37.704791839880045 45.95710918013498 38.00924900449303 44.52719325610161 37.9375 40.4375 C36.92055915893047 36.7087169160784 36.03431544655467 35.32035887089475 33 33 C30.058681087983132 32.01956036266105 28.1749833536702 31.883787979674736 25.11328125 31.90234375 C24.17548828125001 31.90556640624999 23.237695312500023 31.908789062500006 22.271484375 31.912109375 C21.295019531249977 31.920488281250016 20.31855468750001 31.928867187500003 19.3125 31.9375 C18.324433593749973 31.942011718749995 17.336367187500002 31.94652343749999 16.318359375 31.951171875 C13.878880419524762 31.96295679749022 11.439432587621525 31.9808921729429 9 32 Z " fill="#4A5B8C" transform="translate(321,123)"/>
<path d="M0 0 C2.650312499999984 -0.04124999999999801 2.650312499999984 -0.04124999999999801 16.0625 -0.25 C17.721604003906236 -0.28641601562500085 19.380708007812473 -0.3228320312500017 21.090087890625 -0.3603515625 C22.425930907277802 -0.3720493772130098 23.761788340179578 -0.3822386109622684 25.09765625 -0.390625 C25.436015014648433 -0.40085693359375085 25.436015014648433 -0.40085693359375085 27.1483154296875 -0.45263671875 C32.61451007201339 -0.4565855680491353 35.59341585862455 1.0087722439064848 40 4 C43.034387819469714 7.742411644012677 43.75301217919383 11.224902131080405 44 16 C43.077471461275024 20.948107616797635 41.88533522713357 23.76222064405536 38 27 C38.4937109375 27.398320312500005 38.987421874999995 27.796640624999995 39.49609375 28.20703125 C40.13675781249998 28.736835937500004 40.777421875000016 29.266640625000008 41.4375 29.8125 C42.07558593750002 30.334570312500006 42.71367187499999 30.856640624999997 43.37109375 31.39453125 C46.39330880553945 34.37326119682663 46.21621350717089 37.78367043162467 46.3125 41.8125 C46.24257273978259 47.088829634585466 45.810863668937316 50.09386473933927 42 54 C36.10106158918779 59.702585645013215 29.398408669634364 59.57111429949079 21.658203125 59.450439453125 C19.955996093750002 59.40491943359375 18.253789062500005 59.359399414062494 16.5 59.3125 C11.055000000000007 59.209374999999994 5.610000000000014 59.10625 0 59 C0 39.53 0 20.059999999999995 0 0 Z M9 7 C9 12.939999999999998 9 18.880000000000003 9 25 C27.230052778640186 25.49270412915243 27.230052778640186 25.49270412915243 33 22 C35.075414392444316 19.046525672290798 35.01838662607315 17.459665651828168 34.875 13.875 C33.85162492942561 10.512481910969797 33.049621832121545 9.655508994580273 30 8 C27.232691547587024 7.163697822238319 24.775066935226164 6.880491917157379 21.890625 6.90234375 C21.550473632812498 6.903592529296873 21.550473632812498 6.903592529296873 19.8291015625 6.909912109375 C18.977998046874973 6.919016113281252 18.126894531250002 6.928120117187504 17.25 6.9375 C14.527499999999975 6.958125000000003 11.805000000000007 6.978749999999998 9 7 Z M9 32 C9 38.599999999999994 9 45.2 9 52 C10.495312500000011 52.03093749999999 10.495312500000011 52.03093749999999 18.0625 52.1875 C18.990705566406234 52.21481201171875 19.918911132812525 52.2421240234375 20.875244140625 52.270263671875 C26.362447507076467 52.32478978717364 30.179733455349208 51.68906937276357 35 49 C37.65813779385314 45.01279330922024 37.8481468122348 41.690251871658575 37 37 C34.04170921483484 33.801847799821445 31.249229499580906 32.11731819599609 26.823486328125 31.886474609375 C26.412396240234386 31.88909301757812 26.412396240234386 31.88909301757812 24.33203125 31.90234375 C23.92972290039063 31.903592529296873 23.92972290039063 31.903592529296873 21.893798828125 31.909912109375 C20.876970214843766 31.919016113281245 19.860141601562475 31.928120117187504 18.8125 31.9375 C15.574374999999975 31.958124999999995 12.336250000000007 31.978750000000005 9 32 Z " fill="#D945EF" transform="translate(335,41)"/>
<path d="M0 0 C2.8874999999999886 -0.04124999999999801 2.8874999999999886 -0.04124999999999801 17.5 -0.25 C18.40331054687499 -0.2682080078124969 18.40331054687499 -0.2682080078124969 22.974609375 -0.3603515625 C24.430977554995252 -0.3720505687222797 25.88735897211933 -0.3822395150398421 27.34375 -0.390625 C27.711938476562523 -0.40085693359375085 27.711938476562523 -0.40085693359375085 29.5751953125 -0.45263671875 C35.152760545012654 -0.45633047055961384 39.311479399645464 0.9582296864498261 44 4 C47.428967070616295 7.849500767956052 48.66661917051812 12.883604403271796 48.39453125 17.97265625 C47.68299082759074 21.62898772752883 46.228750508459996 25.010939953536962 44 28 C43.00999999999999 28.33 42.01999999999998 28.659999999999997 41 29 C41 29.659999999999997 41 30.319999999999993 41 31 C41.30937499999999 31.103125000000006 41.30937499999999 31.103125000000006 42.875 31.625 C45.92633837048152 33.59939541619393 46.07703258452216 35.52081413382922 47 39 C47.35534168838194 42.81588517637404 47.50202103165253 46.6126721107735 47.65625 50.44140625 C48 54 48 54 50 59 C46.370000000000005 59 42.74000000000001 59 39 59 C37.44721116092603 54.34163348277805 37.65961220275415 49.548599305071775 37.4765625 44.6640625 C36.98750674097954 40.90394527080977 36.392439696528584 38.91681004097319 34 36 C31.029068519958173 34.989624744141324 28.136335025571157 34.81679478767683 25.015625 34.68359375 C24.594262695312523 34.66453979492188 24.594262695312523 34.66453979492188 22.4619140625 34.568115234375 C21.401982421875005 34.52501220703125 20.34205078125001 34.481909179687506 19.25 34.4375 C15.867500000000007 34.293125 12.485000000000014 34.14875000000001 9 34 C9 42.25 9 50.5 9 59 C6.029999999999973 59 3.0600000000000023 59 0 59 C0 39.53 0 20.059999999999995 0 0 Z M9 8 C9 14.269999999999996 9 20.54 9 27 C12.167196292905999 27.081597614416467 15.332251524299863 27.140784608153297 18.5 27.1875 C19.386874999999975 27.212636718750005 20.273750000000007 27.237773437499996 21.1875 27.263671875 C27.175421207146428 27.329715123608224 31.564771951948785 26.572633480178595 37 24 C39.12829896235985 20.935249494201777 39.00600343860316 19.171098000189836 38.875 15.4375 C37.89090935686346 11.571429616249262 37.0973258748017 10.424733775246125 34 8 C31.2509765625 7.5458984375 31.2509765625 7.5458984375 28.140625 7.609375 C27.02558593750001 7.622265624999997 25.910546875000023 7.635156250000001 24.76171875 7.6484375 C23.602851562500007 7.681953125 22.443984375000014 7.715468749999999 21.25 7.75 C20.66283203124999 7.759023437499998 20.66283203124999 7.759023437499998 17.69140625 7.8046875 C14.793922429912357 7.8518010580502064 11.896858048566742 7.923543335961583 9 8 Z " fill="#DC45DF" transform="translate(449,41)"/>
<path d="M0 0 C3.488603384683131 3.8057491469270417 4.969809069092378 7.550666266693639 5.25 12.6875 C5.219062500000007 13.110312499999992 5.219062500000007 13.110312499999992 5.0625 15.25 C2.0924999999999727 15.25 -0.8774999999999977 15.25 -3.9375 15.25 C-4.185000000000002 14.156875000000014 -4.4325000000000045 13.063749999999999 -4.6875 11.9375 C-5.97591325042896 8.13668091123455 -6.488039734937274 7.076184846209685 -9.9375 5.25 C-14.913314330486287 3.29521579873753 -20.33409287762356 3.7452236836963095 -25.3125 5.3125 C-27.9375 7.25 -27.9375 7.25 -29.5 10.6875 C-29.9375 14.25 -29.9375 14.25 -28.780029296875 16.377197265625 C-26.52586674801711 18.668396538486917 -25.014952149495173 19.086439454908316 -21.89453125 19.77734375 C-20.90259765625001 20.012597656249994 -19.910664062500018 20.24785156249999 -18.888671875 20.490234375 C-17.852910156250005 20.720332031249995 -16.81714843750001 20.95042968749999 -15.75 21.1875 C-1.6688515163995135 24.321604703705646 -1.6688515163995135 24.321604703705646 4.0625 29.25 C7.226684318072955 34.58956103674808 7.916695540969442 39.22527686552243 6.62890625 45.29296875 C5.209352800240481 49.99248420789951 3.206230862107816 52.49498327008851 -0.828125 55.2421875 C-9.031279656108211 59.16147250236281 -18.944808646729143 59.72306379633471 -27.734375 57.5625 C-33.820414959157176 55.11174565403067 -37.199227678906595 51.560994897320796 -40.25 45.75 C-41.052547324363786 42.83164609322256 -41.07762892951553 40.26277198458399 -40.9375 37.25 C-38.297500000000014 37.25 -35.65750000000003 37.25 -32.9375 37.25 C-32.622968749999984 37.948671875 -32.308437500000025 38.647343750000005 -31.984375 39.3671875 C-31.55640625000001 40.277265624999984 -31.128437500000018 41.18734375 -30.6875 42.125 C-30.269843750000007 43.029921875000014 -29.852187500000014 43.93484375 -29.421875 44.8671875 C-27.731074888010482 47.58136662714105 -26.967074187350477 48.31701694576404 -23.9375 49.25 C-20.6953125 49.515625 -20.6953125 49.515625 -17.0625 49.5 C-16.465664062500025 49.502578125000014 -16.465664062500025 49.502578125000014 -13.4453125 49.515625 C-9.955196627792873 49.25134005644756 -7.190966633559242 48.50362934504119 -3.9375 47.25 C-2.3701028219753653 39.27671870309217 -2.3701028219753653 39.27671870309217 -4.25 35.875 C-8.256185249370276 33.45265543061333 -12.427471267133114 32.421665427990206 -16.9375 31.25 C-19.35692269480512 30.61456920433139 -21.773520580643776 29.968306248176077 -24.1875 29.3125 C-25.327031250000005 29.014726562500016 -26.46656250000001 28.716953125000003 -27.640625 28.41015625 C-31.931902670831278 26.90007394166247 -35.621726185406146 25.126407874725118 -38.28515625 21.328125 C-39.854890351884706 16.327534926930127 -39.89150715045554 10.818153177342367 -38.0625 5.89453125 C-34.82741665945588 0.22249368253288537 -30.79607313506699 -2.531503220505158 -24.5625 -4.5 C-15.680205797022836 -5.345932781235916 -7.828247273468378 -4.663636673555615 0 0 Z " fill="#4A5B8C" transform="translate(416.9375,125.75)"/>
<path d="M0 0 C14.189999999999998 0 28.379999999999995 0 43 0 C43 2.6400000000000006 43 5.280000000000001 43 8 C31.44999999999999 8 19.899999999999977 8 8 8 C8 13.61 8 19.22 8 25 C18.889999999999986 25 29.779999999999973 25 41 25 C41 27.64 41 30.28 41 33 C30.110000000000014 33 19.220000000000027 33 8 33 C8 38.94 8 44.879999999999995 8 51 C10.514960937500007 50.988398437499995 13.029921875000014 50.97679687499999 15.62109375 50.96484375 C18.046955095924943 50.957053273549974 20.472815068142495 50.95097646111023 22.898681640625 50.945068359375 C24.589443155559024 50.94002810483485 26.28020029036776 50.93319595110441 27.970947265625 50.924560546875 C30.39600706865366 50.91248143270815 32.82100943988587 50.90676877023482 35.24609375 50.90234375 C35.62630424499514 50.899763107299805 35.62630424499514 50.899763107299805 37.55039978027344 50.88670349121094 C39.36732570392928 50.886507624389594 41.18413127498013 50.93802723250391 43 51 C44 52 44 52 44 59 C29.480000000000018 59 14.95999999999998 59 0 59 C0 39.53 0 20.059999999999995 0 0 Z " fill="#DA44EE" transform="translate(393,41)"/>
<path d="M0 0 C5.54785511629143 4.079940143887498 8.113881826934175 8.454060458183335 10 15 C10 15.659999999999997 10 16.32 10 17 C6.875906366447623 17.490053903302332 4.101809880287249 17.696859314321294 1 17 C-0.6804203202375447 15.122655423484652 -1.6760689235302948 13.209393417645337 -2.83984375 10.98046875 C-4.667491903010642 7.860544125163642 -6.5978812669183355 7.04680576402513 -10 6 C-16.433625480651216 5.055285477748242 -21.717848485746117 6.1431909578463575 -27 10 C-32.35430935868666 16.199726625847703 -33.44522274540475 23.537343296344318 -33.25 31.48046875 C-32.544720821406315 38.588360471764574 -30.097326704407664 44.02403821712585 -25 49 C-20.6975537211309 51.62927272597557 -15.898486306021994 51.52886312330503 -11 51 C-5.723988559978125 49.37661186460866 -3.692801911651088 46.59082262830715 -0.98046875 42.03515625 C0 40 0 40 1 36 C3.9700000000000273 36 6.939999999999998 36 10 36 C9.565261227398764 44.11512375522247 6.9228468309313484 49.07715316906868 1.1875 54.8125 C-6.241817596902138 59.91105129199167 -13.031820492691907 60.87140205739027 -22 60 C-28.732814012097634 58.62828916561678 -34.43622908122947 54.857636616094 -38.25390625 49.11328125 C-43.59721666948505 39.077321827424754 -44.78022671227512 27.54086235102956 -41.75 16.5625 C-39.049009434318776 8.822161295570908 -34.31942761572935 2.684852879772663 -26.93359375 -1.04296875 C-18.299440260784706 -4.332905589361104 -8.256560207088569 -4.393113166790528 0 0 Z " fill="#D945EF" transform="translate(258,42)"/>
<path d="M0 0 C3.3000000000000114 0 6.600000000000023 0 10 0 C13.092714723867857 6.75472645506548 15.781645225469106 13.585285643956666 18.328125 20.5625 C18.525059509277355 21.098749999999995 18.525059509277355 21.098749999999995 19.52166748046875 23.8125 C20.34663059739438 26.060826809298703 21.170116315130826 28.309696214475423 21.9921875 30.55908203125 C23.256795877854017 34.01859105249895 24.526475277771056 37.476207757108 25.796875 40.93359375 C26.59925460974017 43.122287240530056 27.401348345843587 45.31108555889793 28.203125 47.5 C28.584304809570313 48.53842041015625 28.965484619140625 49.5768408203125 29.35821533203125 50.646728515625 C29.705678100585942 51.59862060546874 30.053140869140634 52.550512695312506 30.4111328125 53.53125 C30.71883605957032 54.37236328124999 31.026539306640643 55.213476562500006 31.34356689453125 56.080078125 C32 58 32 58 32 59 C28.69999999999999 59 25.399999999999977 59 22 59 C19.843707919392216 53.68114620116745 17.816729012294104 48.45018703688237 16 43 C8.410000000000025 42.670000000000016 0.8199999999999932 42.34 -7 42 C-7.1650000000000205 42.99000000000001 -7.1650000000000205 42.99000000000001 -8 48 C-8.641626568610661 49.973839162874555 -9.328554557119958 51.933595925284976 -10.0625 53.875 C-10.424726562499984 54.841796875 -10.786953125000025 55.80859375 -11.16015625 56.8046875 C-11.437304687499989 57.529140625 -11.714453124999977 58.25359374999999 -12 59 C-15.300000000000011 59 -18.600000000000023 59 -22 59 C-17.498624756358197 45.68202136561618 -12.603685800748565 32.52023930229342 -7.625 19.375 C-7.465911560058601 18.95450881958007 -7.465911560058601 18.95450881958007 -6.66082763671875 16.826568603515625 C-5.746814161359964 14.412423673828215 -4.830921648499157 11.99900295789027 -3.9140625 9.5859375 C-3.774612121582038 9.218114089965809 -3.774612121582038 9.218114089965809 -3.06890869140625 7.3567047119140625 C-1.117133765699748 2.23426753139951 -1.117133765699748 2.23426753139951 0 0 Z M4 12 C2.825384454088521 15.101217108107505 1.6616954439588767 18.206422413353238 0.5 21.3125 C0.16613281249999545 22.19357421875 -0.1677343750000091 23.074648437500002 -0.51171875 23.982421875 C-0.8275390625000227 24.829980468749994 -1.1433593749999886 25.67753906249999 -1.46875 26.55078125 C-1.7620117187499886 27.33106689453126 -2.0552734374999773 28.111352539062494 -2.357421875 28.915283203125 C-3 31 -3 31 -3 34 C2.2799999999999727 34 7.560000000000002 34 13 34 C10.689999999999998 26.74000000000001 8.379999999999995 19.47999999999999 6 12 C5.339999999999975 12 4.680000000000007 12 4 12 Z " fill="#4B5B8C" transform="translate(282,123)"/>
<path d="M0 0 C3.899424249268975 -0.8072413627008785 7.126247935676702 -1.023279396222108 11 0 C14.55498609141398 3.651601377870115 16.752654515350287 8.00108526519211 19.0625 12.5 C20.33206548155573 14.851047188066126 21.621961267138886 17.19029338524723 22.91015625 19.53125 C23.458088378906268 20.57861328125 24.00602050781248 21.6259765625 24.570556640625 22.705078125 C25.042272949218727 23.46240234375 25.51398925781251 24.2197265625 26 25 C26.660000000000025 25 27.319999999999993 25 28 25 C28.347805175781275 24.384794921875 28.695610351562493 23.769589843749998 29.053955078125 23.1357421875 C30.637284830174906 20.33886917554981 32.22484476004007 17.544419718776055 33.8125 14.75 C34.35970703124997 13.7819140625 34.90691406249999 12.813828125 35.470703125 11.81640625 C36.00244140625 10.8818359375 36.5341796875 9.947265625 37.08203125 8.984375 C37.325543212890636 8.554956054687501 37.325543212890636 8.554956054687501 38.557861328125 6.3818359375 C39.931451503362666 4.113214683120653 41.26098541966155 2.00409433240052 43 0 C45.69921875 -0.390625 45.69921875 -0.390625 48.6875 -0.25 C49.68136718749997 -0.21390625000000085 50.675234375 -0.1778125000000017 51.69921875 -0.140625 C52.45847656249998 -0.09421875000000313 53.21773437500002 -0.04781249999999915 54 0 C48.90292052596334 9.082765679298426 43.332529091909066 17.842693331000156 37.71240234375 26.60791015625 C37.11895019531249 27.533940429687505 36.525498046874986 28.459970703124995 35.9140625 29.4140625 C35.37732910156251 30.248891601562505 34.84059570312502 31.083720703124996 34.28759765625 31.94384765625 C32.205697082048914 35.26841470894652 31.834248713849263 37.30953343991908 31.68359375 41.2265625 C31.641699218749977 42.2578125 31.59980468750001 43.2890625 31.556640625 44.3515625 C31.51732421874999 45.431796875 31.478007812499982 46.51203125000001 31.4375 47.625 C31.394316406250027 48.71296875 31.351132812499998 49.8009375 31.306640625 50.921875 C31.200354702735694 53.6144516973617 31.098319428551235 56.307122532477166 31 59 C28.029999999999973 59 25.060000000000002 59 22 59 C22.053496093750027 58.37359619140625 22.106992187499998 57.7471923828125 22.162109375 57.101806640625 C23.44807807201215 38.04561727965826 18.076591945493703 26.82398633834194 6.896484375 11.68359375 C4.264872749938149 7.9597684432698586 2.0815016100895605 4.051720023527956 0 0 Z " fill="#D945EF" transform="translate(274,41)"/>
<path d="M0 0 C2.969999999999999 0 5.939999999999998 0 9 0 C9 16.830000000000013 9 33.66 9 51 C18.569999999999993 51 28.139999999999986 51 38 51 C38 53.639999999999986 38 56.28 38 59 C25.460000000000008 59 12.919999999999987 59 0 59 C0 39.53 0 20.060000000000002 0 0 Z " fill="#485890" transform="translate(218,123)"/>
<path d="M0 0 C3.025081454676865 1.7360210489366068 5.417900685645037 3.835801371290046 7 7 C7.581113801452773 14.08958837772397 7.581113801452773 14.08958837772397 5.125 17.9375 C3 20 3 20 1 21 C0.990090332031258 21.282546386718764 0.990090332031258 21.282546386718764 0.93994140625 22.71240234375 C0.8448176354800836 25.267079966471385 0.7350894221205522 27.82092540680327 0.625 30.375 C0.6095312500000034 30.819726562499994 0.6095312500000034 30.819726562499994 0.53125 33.0703125 C0.4925781249999943 33.92109375000001 0.45390625000000284 34.771874999999994 0.4140625 35.6484375 C0.38264160156249716 36.4339599609375 0.3512207031249943 37.219482421875 0.31884765625 38.02880859375 C0 40 0 40 -2 42 C-6.555555555555557 41.44444444444443 -6.555555555555557 41.44444444444443 -8 40 C-8.086516108906508 38.58429876845233 -8.107049039706453 37.164404995674744 -8.09765625 35.74609375 C-8.094433593749997 34.89208984375 -8.091210937499994 34.0380859375 -8.087890625 33.158203125 C-8.079511718749998 32.260371093749995 -8.071132812499997 31.36253906249999 -8.0625 30.4375 C-8.057988281250005 29.535800781250003 -8.053476562499995 28.634101562500007 -8.048828125 27.705078125 C-8.037002245306255 25.46998686288208 -8.020522201749458 23.235025633605773 -8 21 C-8.623906250000005 20.703515624999994 -9.247812499999995 20.40703124999999 -9.890625 20.1015625 C-12.578623556170868 18.697829920666322 -13.58005956550386 17.697886825542668 -15 15 C-15.84457478005865 8.454545454545467 -15.84457478005865 8.454545454545467 -13.9453125 5.18359375 C-9.924754250667092 0.24710950895516248 -6.285588896948013 -1.0728648952119073 0 0 Z " fill="#FDFAFD" transform="translate(126,128)"/>
</svg>
